<svg xmlns="http://www.w3.org/2000/svg" width="512" height="512" viewBox="0 0 512 512" fill="none"><path d="M12.299 459.584V52.3758H56.628C192.892 52.3758 303.733 163.981 303.733 301.221V459.622H12.299V459.584Z" fill="#F4F3EF"></path><path d="M56.6279 63.7536C186.677 63.7536 292.472 170.277 292.472 301.222V448.247H23.5977V63.7536H56.6279ZM56.6279 41.0003H1V470.962H315.032V301.185C315.032 157.497 199.332 41.0003 56.6279 41.0003Z" fill="#151515"></path><path d="M208.974 459.584V301.183C208.974 163.981 319.853 52.3757 456.117 52.3757H500.446V459.584H208.974Z" fill="#F4F3EF"></path><path d="M456.117 41C313.375 41 197.675 157.497 197.675 301.222V471H511.707V41H456.079H456.117ZM220.273 448.209V301.184C220.273 170.239 326.067 63.7154 456.117 63.7154H489.147V222.458H448.848C389.002 222.458 340.304 271.491 340.304 331.75V366.069H362.902V331.75C362.902 284.043 401.468 245.211 448.848 245.211H489.147V448.171H220.273V448.209Z" fill="#151515"></path></svg>