<svg width="169" height="42" viewBox="0 0 169 42" fill="none" xmlns="http://www.w3.org/2000/svg">
<g clip-path="url(#clip0_1220_672)">
<path d="M5.35065 2.18856C17.8596 2.18856 28.0356 12.4347 28.0356 25.0298V39.1716H2.17359V2.18856H5.35065ZM5.35065 0H0V41.3565H30.2056V25.0262C30.2056 11.2054 19.0768 0 5.35065 0Z" fill="white"/>
<path d="M59.2085 16.7569V1.55371H61.7625L66.5914 14.7471L71.3987 1.55371H73.9527V16.7569H72.1232V4.97881L67.805 16.7569H65.3597L61.0416 4.97881V16.7569H59.2121H59.2085Z" fill="white"/>
<path d="M76.1189 16.7569L81.5637 1.55371H84.0307L89.4755 16.7569H87.4758L85.9652 12.4309H79.6256L78.1149 16.7569H76.1152H76.1189ZM80.245 10.6326H85.3494L82.7954 3.15866L80.2414 10.6326H80.245Z" fill="white"/>
<path d="M91.4321 16.7569V1.55371H97.1522C98.2173 1.55371 99.1302 1.73974 99.8945 2.11179C100.659 2.48385 101.253 3.0164 101.67 3.7058C102.086 4.39884 102.296 5.2159 102.296 6.15698C102.296 6.84273 102.137 7.45188 101.818 7.98808C101.499 8.52428 101.09 8.9474 100.594 9.26109C100.097 9.57478 99.5794 9.74622 99.0396 9.7754L98.9128 9.58208C99.833 9.58208 100.561 9.79729 101.094 10.2241C101.626 10.6508 101.934 11.3366 102.017 12.2813L102.441 16.7569H100.59L100.206 12.4746C100.148 11.8472 99.9272 11.384 99.5359 11.0812C99.1447 10.7821 98.5107 10.6326 97.634 10.6326H93.2542V16.7569H91.4248H91.4321ZM93.2615 8.83432H97.3877C98.3078 8.83432 99.0396 8.59723 99.5794 8.12669C100.119 7.65615 100.387 6.98499 100.387 6.11321C100.387 5.24144 100.112 4.54839 99.5576 4.06691C99.0034 3.58907 98.2028 3.34833 97.1558 3.34833H93.2651V8.83067L93.2615 8.83432Z" fill="white"/>
<path d="M111.19 17.0997C109.842 17.0997 108.658 16.7823 107.64 16.1476C106.618 15.513 105.825 14.601 105.256 13.4156C104.687 12.2301 104.405 10.8185 104.405 9.17707C104.405 7.53565 104.687 6.12038 105.256 4.92761C105.825 3.73485 106.618 2.8193 107.64 2.17732C108.661 1.53534 109.846 1.21436 111.19 1.21436C113.019 1.21436 114.436 1.6776 115.443 2.60774C116.45 3.53423 117.109 4.79995 117.421 6.3976L115.486 6.52526C115.273 5.44192 114.82 4.58474 114.124 3.95735C113.429 3.32996 112.451 3.01627 111.19 3.01627C110.226 3.01627 109.379 3.26066 108.647 3.75673C107.915 4.24916 107.346 4.95679 106.933 5.87599C106.52 6.79518 106.318 7.90041 106.318 9.18436C106.318 10.4683 106.524 11.5699 106.933 12.4818C107.343 13.3937 107.915 14.094 108.647 14.5792C109.379 15.0643 110.223 15.3087 111.19 15.3087C112.509 15.3087 113.53 14.9622 114.251 14.2691C114.972 13.5761 115.428 12.6386 115.613 11.4532L117.548 11.5808C117.363 12.6788 117.001 13.6454 116.465 14.4734C115.925 15.3014 115.211 15.947 114.327 16.4103C113.44 16.8735 112.396 17.107 111.19 17.107V17.0997Z" fill="white"/>
<path d="M120.398 16.7569V1.55371H129.886V3.35198H122.228V8.25435H129.629V10.0088H122.228V14.955H130.056V16.7533H120.402L120.398 16.7569Z" fill="white"/>
<path d="M133.227 16.7569V1.55371H135.056V15.9034L134.143 14.9623H142.609V16.7606H133.23L133.227 16.7569Z" fill="white"/>
<path d="M144.924 16.7569V1.55371H146.753V15.9034L145.84 14.9623H154.306V16.7606H144.927L144.924 16.7569Z" fill="white"/>
<path d="M162.084 17.0997C160.653 17.0997 159.422 16.7823 158.393 16.1476C157.364 15.513 156.574 14.601 156.02 13.4156C155.466 12.2301 155.19 10.8185 155.19 9.17707C155.19 7.53565 155.466 6.12038 156.02 4.92761C156.574 3.73485 157.364 2.8193 158.393 2.17732C159.422 1.53534 160.65 1.21436 162.084 1.21436C163.519 1.21436 164.769 1.53534 165.798 2.17732C166.826 2.8193 167.616 3.7385 168.17 4.92761C168.725 6.11673 169 7.53565 169 9.17707C169 10.8185 168.725 12.2338 168.17 13.4156C167.616 14.601 166.826 15.5093 165.798 16.1476C164.769 16.7823 163.533 17.0997 162.084 17.0997ZM162.084 15.3014C163.135 15.3014 164.03 15.057 164.776 14.5719C165.519 14.0867 166.091 13.3864 166.489 12.4745C166.888 11.5626 167.084 10.461 167.084 9.17707C167.084 7.89311 166.884 6.78789 166.489 5.86869C166.091 4.9495 165.522 4.24186 164.776 3.74944C164.03 3.25701 163.135 3.00898 162.084 3.00898C161.034 3.00898 160.161 3.25336 159.414 3.74944C158.672 4.24186 158.099 4.9495 157.701 5.86869C157.302 6.78789 157.107 7.89311 157.107 9.17707C157.107 10.461 157.306 11.5626 157.701 12.4745C158.099 13.3864 158.668 14.0867 159.414 14.5719C160.161 15.057 161.048 15.3014 162.084 15.3014Z" fill="white"/>
<path d="M43.7761 0C30.0462 0 18.9175 11.2054 18.9175 25.0298V41.3601H49.1231V0H43.7724H43.7761ZM21.0911 39.1679V25.0262C21.0911 12.431 31.2671 2.18491 43.7761 2.18491H46.9531V17.4538H43.0769C37.3205 17.4538 32.6364 22.1701 32.6364 27.9662V31.2672H34.81V27.9662C34.81 23.3775 38.5196 19.6423 43.0769 19.6423H46.9531V39.1643H21.0911V39.1679Z" fill="white"/>
<path d="M64.9502 40.3387C63.5338 40.3387 62.3202 39.9958 61.3131 39.31C60.306 38.6243 59.538 37.6869 59.0055 36.4941C58.473 35.3013 58.2085 33.9408 58.2085 32.4161C58.2085 30.8914 58.4766 29.5235 59.0163 28.3271C59.5561 27.127 60.3314 26.1823 61.3457 25.4893C62.36 24.7962 63.5736 24.4497 64.9937 24.4497C66.2001 24.4497 67.218 24.6722 68.0476 25.1136C68.8772 25.5549 69.5365 26.1568 70.0256 26.9118C70.5146 27.6705 70.8515 28.5168 71.0363 29.4615L69.1235 29.5892C68.9388 28.6043 68.5294 27.8019 67.8882 27.1781C67.2506 26.558 66.287 26.248 64.9973 26.248C63.849 26.248 62.9179 26.5325 62.2007 27.1052C61.4834 27.6778 60.9581 28.4292 60.6284 29.363C60.2951 30.2968 60.1285 31.3145 60.1285 32.4161C60.1285 33.5724 60.2988 34.6119 60.6393 35.5311C60.9798 36.4503 61.5123 37.1835 62.2333 37.727C62.9578 38.2705 63.8779 38.5404 64.9973 38.5404C65.8921 38.5404 66.6638 38.3361 67.3158 37.9312C67.9679 37.5227 68.4715 36.9792 68.8265 36.2935C69.1815 35.6077 69.3662 34.8673 69.3807 34.0648H65.0408V32.3103H71.0798V39.9994H69.7176L69.5908 36.4868L69.8444 36.7859C69.6742 37.4716 69.3481 38.0808 68.8663 38.617C68.3845 39.1532 67.8049 39.5727 67.1311 39.8791C66.4573 40.1855 65.7291 40.3387 64.9502 40.3387Z" fill="white"/>
<path d="M74.3511 39.9996V24.7964H83.8388V26.5947H76.1805V31.497H83.5816V33.2515H76.1805V38.1977H84.009V39.9959H74.3547L74.3511 39.9996Z" fill="white"/>
<path d="M87.2188 39.9996V24.7964H89.8126L97.2788 38.1612V24.7964H99.1083V39.9996H96.384L89.0482 26.8938V39.9996H87.2188Z" fill="white"/>
<path d="M108.871 40.3389C107.44 40.3389 106.208 40.0216 105.179 39.3869C104.151 38.7522 103.361 37.8403 102.807 36.6548C102.252 35.4694 101.977 34.0577 101.977 32.4163C101.977 30.7749 102.252 29.356 102.807 28.1669C103.361 26.9741 104.151 26.0586 105.179 25.4166C106.208 24.7746 107.436 24.4536 108.871 24.4536C110.306 24.4536 111.555 24.7746 112.584 25.4166C113.613 26.0586 114.403 26.9778 114.957 28.1669C115.511 29.3596 115.787 30.7749 115.787 32.4163C115.787 34.0577 115.511 35.473 114.957 36.6548C114.403 37.8403 113.613 38.7522 112.584 39.3869C111.555 40.0216 110.32 40.3389 108.871 40.3389ZM108.871 38.5406C109.922 38.5406 110.816 38.2963 111.563 37.8111C112.305 37.326 112.878 36.6257 113.276 35.7138C113.675 34.8019 113.87 33.7003 113.87 32.4163C113.87 31.1324 113.671 30.0271 113.276 29.108C112.878 28.1888 112.309 27.4811 111.563 26.9887C110.816 26.4963 109.922 26.2482 108.871 26.2482C107.82 26.2482 106.947 26.4926 106.201 26.9887C105.458 27.4811 104.886 28.1888 104.488 29.108C104.089 30.0271 103.893 31.1324 103.893 32.4163C103.893 33.7003 104.093 34.8019 104.488 35.7138C104.886 36.6257 105.455 37.326 106.201 37.8111C106.947 38.2963 107.835 38.5406 108.871 38.5406Z" fill="white"/>
<path d="M122.25 39.9996L116.783 24.7964H118.783L123.463 37.9898L128.122 24.7964H130.122L124.655 39.9996H122.253H122.25Z" fill="white"/>
<path d="M132.288 39.9996V24.7964H141.776V26.5947H134.118V31.497H141.519V33.2515H134.118V38.1977H141.946V39.9959H132.292L132.288 39.9996Z" fill="white"/>
<path d="M150.557 40.3387C149.394 40.3387 148.38 40.1162 147.514 39.6748C146.648 39.2334 145.964 38.6206 145.46 37.8437C144.957 37.0668 144.663 36.1622 144.576 35.1335L146.489 35.0059C146.587 35.7646 146.808 36.4065 147.148 36.9318C147.489 37.4607 147.945 37.8583 148.521 38.1319C149.094 38.4018 149.786 38.5404 150.593 38.5404C151.303 38.5404 151.905 38.4492 152.401 38.2632C152.897 38.0771 153.278 37.8072 153.539 37.4498C153.799 37.0923 153.933 36.6582 153.933 36.1439C153.933 35.6734 153.825 35.2539 153.604 34.8928C153.383 34.528 152.966 34.1924 152.35 33.8861C151.735 33.5797 150.822 33.2769 149.619 32.9742C148.456 32.675 147.532 32.3468 146.844 31.9893C146.156 31.6318 145.659 31.1978 145.355 30.6835C145.051 30.1691 144.899 29.5345 144.899 28.7758C144.899 27.9186 145.101 27.1672 145.504 26.5179C145.909 25.8686 146.485 25.3616 147.235 24.9968C147.985 24.6321 148.88 24.4497 149.916 24.4497C151.021 24.4497 151.97 24.6613 152.767 25.0807C153.56 25.5039 154.191 26.0765 154.662 26.8061C155.133 27.5356 155.419 28.3636 155.535 29.2901L153.622 29.4177C153.539 28.8049 153.343 28.2578 153.039 27.78C152.734 27.3021 152.318 26.9264 151.796 26.6565C151.271 26.3866 150.633 26.248 149.883 26.248C148.949 26.248 148.202 26.4741 147.652 26.9228C147.098 27.3714 146.822 27.9623 146.822 28.6882C146.822 29.1588 146.931 29.5491 147.152 29.8555C147.373 30.1618 147.764 30.4318 148.333 30.6689C148.902 30.906 149.717 31.1576 150.778 31.4276C152.039 31.7413 153.042 32.117 153.789 32.551C154.531 32.9851 155.064 33.4885 155.383 34.0611C155.701 34.6338 155.861 35.2831 155.861 36.009C155.861 36.8953 155.632 37.6613 155.18 38.3106C154.727 38.9599 154.1 39.4596 153.307 39.8098C152.513 40.1599 151.597 40.335 150.564 40.335L150.557 40.3387Z" fill="white"/>
<path d="M158.94 39.9996V24.7964H168.428V26.5947H160.769V31.497H168.17V33.2515H160.769V38.1977H168.598V39.9959H158.944L158.94 39.9996Z" fill="white"/>
</g>
<defs>
<clipPath id="clip0_1220_672">
<rect width="169" height="41.3565" fill="white"/>
</clipPath>
</defs>
</svg>
