<svg width="149" height="37" viewBox="0 0 149 37" fill="none" xmlns="http://www.w3.org/2000/svg">
<g clip-path="url(#clip0_1177_724)">
<path d="M0.958008 35.4974V0.96468H4.71726C16.2729 0.96468 25.6726 10.4292 25.6726 22.0676V35.5006H0.958008V35.4974Z" fill="#F4F3EF"/>
<path d="M4.71743 1.92956C15.7461 1.92956 24.7178 10.9631 24.7178 22.0677V34.5359H1.91636V1.92956H4.71743ZM4.71743 0H0V36.4622H26.631V22.0645C26.631 9.87934 16.8192 0 4.71743 0Z" fill="#151515"/>
<path d="M17.6367 35.4974V22.0644C17.6367 10.4292 27.0396 0.96468 38.5953 0.96468H42.3545V35.4974H17.6367Z" fill="#F4F3EF"/>
<path d="M52.2017 14.7742V1.37019H54.4534L58.7109 13.0022L62.9492 1.37019H65.201V14.7742H63.588V4.38995L59.7809 14.7742H57.625L53.8178 4.38995V14.7742H52.2049H52.2017Z" fill="#151515"/>
<path d="M67.1111 14.7742L71.9116 1.37019H74.0866L78.8871 14.7742H77.1241L75.7922 10.9601H70.2028L68.871 14.7742H67.1079H67.1111ZM70.749 9.37465H75.2492L72.9975 2.7852L70.7458 9.37465H70.749Z" fill="#151515"/>
<path d="M80.6119 14.7742V1.37019H85.6551C86.5941 1.37019 87.399 1.53421 88.0729 1.86223C88.7468 2.19026 89.2706 2.65978 89.6379 3.26759C90.0052 3.87862 90.1905 4.59899 90.1905 5.4287C90.1905 6.03329 90.0499 6.57036 89.7689 7.0431C89.4878 7.51584 89.1269 7.88889 88.6893 8.16546C88.2517 8.44203 87.795 8.59318 87.3191 8.6189L87.2073 8.44846C88.0186 8.44846 88.6606 8.6382 89.1301 9.01446C89.5996 9.39073 89.8711 9.99532 89.9445 10.8282L90.3182 14.7742H88.6861L88.3475 10.9987C88.2964 10.4456 88.1016 10.0371 87.7567 9.77021C87.4117 9.5065 86.8528 9.37465 86.0799 9.37465H82.2184V14.7742H80.6055H80.6119ZM82.2248 7.78919H85.8627C86.6739 7.78919 87.3191 7.58016 87.795 7.1653C88.2709 6.75045 88.5072 6.15872 88.5072 5.39011C88.5072 4.6215 88.2645 4.01047 87.7758 3.58597C87.2872 3.16468 86.5813 2.95243 85.6583 2.95243H82.228V7.78598L82.2248 7.78919Z" fill="#151515"/>
<path d="M98.0315 15.0764C96.8434 15.0764 95.799 14.7966 94.9015 14.2371C94.0008 13.6775 93.3013 12.8735 92.7999 11.8283C92.2984 10.7832 92.0493 9.5386 92.0493 8.09143C92.0493 6.64426 92.2984 5.39648 92.7999 4.34487C93.3013 3.29326 94.0008 2.48606 94.9015 1.92005C95.8022 1.35405 96.8466 1.07105 98.0315 1.07105C99.6445 1.07105 100.893 1.47947 101.781 2.29953C102.669 3.11638 103.25 4.23231 103.525 5.64089L101.82 5.75345C101.631 4.79831 101.232 4.04257 100.619 3.48943C100.005 2.93629 99.143 2.65972 98.0315 2.65972C97.182 2.65972 96.4346 2.87519 95.7894 3.31255C95.1442 3.7467 94.6428 4.3706 94.2787 5.18101C93.9146 5.99143 93.7357 6.96585 93.7357 8.09786C93.7357 9.22987 93.9178 10.2011 94.2787 11.0051C94.6396 11.809 95.1442 12.4265 95.7894 12.8542C96.4346 13.2819 97.1788 13.4974 98.0315 13.4974C99.1941 13.4974 100.095 13.1919 100.73 12.5809C101.366 11.9698 101.768 11.1433 101.931 10.0982L103.637 10.2107C103.474 11.1787 103.155 12.0309 102.682 12.761C102.206 13.491 101.577 14.0602 100.797 14.4686C100.015 14.877 99.0951 15.0829 98.0315 15.0829V15.0764Z" fill="#151515"/>
<path d="M106.15 14.7742V1.37019H114.515V2.95565H107.763V7.27786H114.289V8.82472H107.763V13.1855H114.665V14.771H106.154L106.15 14.7742Z" fill="#151515"/>
<path d="M117.46 14.7742V1.37019H119.073V14.0217L118.268 13.192H125.732V14.7774H117.463L117.46 14.7742Z" fill="#151515"/>
<path d="M127.773 14.7742V1.37019H129.386V14.0217L128.582 13.192H136.046V14.7774H127.777L127.773 14.7742Z" fill="#151515"/>
<path d="M142.903 15.0764C141.641 15.0764 140.555 14.7966 139.648 14.2371C138.741 13.6775 138.045 12.8735 137.556 11.8283C137.067 10.7832 136.825 9.5386 136.825 8.09143C136.825 6.64426 137.067 5.39648 137.556 4.34487C138.045 3.29326 138.741 2.48606 139.648 1.92005C140.555 1.35405 141.638 1.07105 142.903 1.07105C144.168 1.07105 145.269 1.35405 146.177 1.92005C147.084 2.48606 147.78 3.29647 148.269 4.34487C148.757 5.39326 149 6.64426 149 8.09143C149 9.5386 148.757 10.7864 148.269 11.8283C147.78 12.8735 147.084 13.6743 146.177 14.2371C145.269 14.7966 144.18 15.0764 142.903 15.0764ZM142.903 13.491C143.829 13.491 144.618 13.2755 145.276 12.8478C145.931 12.4201 146.435 11.8026 146.787 10.9986C147.138 10.1946 147.31 9.22344 147.31 8.09143C147.31 6.95942 147.135 5.98499 146.787 5.17458C146.435 4.36416 145.934 3.74027 145.276 3.30612C144.618 2.87197 143.829 2.65329 142.903 2.65329C141.977 2.65329 141.207 2.86875 140.549 3.30612C139.894 3.74027 139.389 4.36416 139.038 5.17458C138.687 5.98499 138.514 6.95942 138.514 8.09143C138.514 9.22344 138.69 10.1946 139.038 10.9986C139.389 11.8026 139.891 12.4201 140.549 12.8478C141.207 13.2755 141.989 13.491 142.903 13.491Z" fill="#151515"/>
<path d="M38.5955 -2.28882e-05C26.4905 -2.28882e-05 16.6787 9.87932 16.6787 22.0677V36.4654H43.3097V-2.28882e-05H38.5923H38.5955ZM18.5951 34.5327V22.0645C18.5951 10.9599 27.5668 1.92632 38.5955 1.92632H41.3965V15.3882H37.979C32.9039 15.3882 28.7741 19.5464 28.7741 24.6565V27.5669H30.6905V24.6565C30.6905 20.6109 33.9611 17.3178 37.979 17.3178H41.3965V34.5294H18.5951V34.5327Z" fill="#151515"/>
<path d="M57.2637 35.5651C56.0149 35.5651 54.9449 35.2628 54.057 34.6582C53.1691 34.0536 52.492 33.2271 52.0225 32.1755C51.553 31.1239 51.3198 29.9243 51.3198 28.5801C51.3198 27.2358 51.5562 26.0298 52.0321 24.975C52.508 23.9169 53.1915 23.084 54.0858 22.473C54.9801 21.862 56.05 21.5565 57.3021 21.5565C58.3656 21.5565 59.2631 21.7526 59.9945 22.1418C60.7259 22.5309 61.3072 23.0615 61.7384 23.7272C62.1696 24.3961 62.4666 25.1422 62.6295 25.9751L60.9431 26.0877C60.7802 25.2194 60.4193 24.5119 59.854 23.962C59.2919 23.4153 58.4423 23.1419 57.3052 23.1419C56.2928 23.1419 55.4719 23.3928 54.8395 23.8977C54.2071 24.4026 53.744 25.065 53.4534 25.8883C53.1595 26.7116 53.0126 27.6088 53.0126 28.5801C53.0126 29.5995 53.1627 30.516 53.463 31.3265C53.7632 32.1369 54.2327 32.7833 54.8683 33.2624C55.5071 33.7416 56.3183 33.9796 57.3052 33.9796C58.0942 33.9796 58.7745 33.7995 59.3494 33.4425C59.9243 33.0824 60.3682 32.6032 60.6812 31.9986C60.9942 31.394 61.1571 30.7412 61.1699 30.0337H57.3436V28.4868H62.6679V35.266H61.4669L61.3552 32.169L61.5787 32.4327C61.4286 33.0373 61.1412 33.5744 60.7164 34.0471C60.2916 34.5199 59.7805 34.8897 59.1865 35.1598C58.5924 35.43 57.9504 35.5651 57.2637 35.5651Z" fill="#151515"/>
<path d="M65.5518 35.2662V21.8622H73.9167V23.4476H67.1647V27.7698H73.6899V29.3167H67.1647V33.6775H74.0668V35.263H65.5549L65.5518 35.2662Z" fill="#151515"/>
<path d="M76.897 35.2662V21.8622H79.1838L85.7665 33.6454V21.8622H87.3794V35.2662H84.9776L78.5099 23.7113V35.2662H76.897Z" fill="#151515"/>
<path d="M95.9867 35.5653C94.7251 35.5653 93.6392 35.2856 92.7321 34.726C91.825 34.1664 91.1288 33.3624 90.6401 32.3172C90.1514 31.2721 89.9087 30.0275 89.9087 28.5803C89.9087 27.1332 90.1514 25.8822 90.6401 24.8338C91.1288 23.7822 91.825 22.975 92.7321 22.409C93.6392 21.843 94.7219 21.56 95.9867 21.56C97.2515 21.56 98.3534 21.843 99.2605 22.409C100.168 22.975 100.864 23.7854 101.353 24.8338C101.841 25.8854 102.084 27.1332 102.084 28.5803C102.084 30.0275 101.841 31.2753 101.353 32.3172C100.864 33.3624 100.168 34.1664 99.2605 34.726C98.3534 35.2856 97.2643 35.5653 95.9867 35.5653ZM95.9867 33.9799C96.913 33.9799 97.7019 33.7644 98.3598 33.3367C99.0146 32.909 99.5192 32.2915 99.8706 31.4875C100.222 30.6836 100.394 29.7123 100.394 28.5803C100.394 27.4483 100.219 26.4739 99.8706 25.6635C99.5192 24.8531 99.0178 24.2292 98.3598 23.795C97.7019 23.3609 96.913 23.1422 95.9867 23.1422C95.0605 23.1422 94.2908 23.3577 93.6328 23.795C92.9781 24.2292 92.4734 24.8531 92.1221 25.6635C91.7707 26.4739 91.5983 27.4483 91.5983 28.5803C91.5983 29.7123 91.7739 30.6836 92.1221 31.4875C92.4734 32.2915 92.9749 32.909 93.6328 33.3367C94.2908 33.7644 95.0733 33.9799 95.9867 33.9799Z" fill="#151515"/>
<path d="M107.782 35.2662L102.962 21.8622H104.725L108.852 33.4942L112.959 21.8622H114.722L109.903 35.2662H107.785H107.782Z" fill="#151515"/>
<path d="M116.632 35.2662V21.8622H124.997V23.4476H118.245V27.7698H124.77V29.3167H118.245V33.6775H125.147V35.263H116.636L116.632 35.2662Z" fill="#151515"/>
<path d="M132.739 35.5653C131.714 35.5653 130.82 35.3691 130.057 34.98C129.293 34.5908 128.69 34.0506 128.246 33.3656C127.802 32.6806 127.543 31.883 127.466 30.9761L129.153 30.8636C129.239 31.5325 129.434 32.0985 129.734 32.5616C130.034 33.0279 130.437 33.3784 130.945 33.6196C131.449 33.8576 132.059 33.9798 132.771 33.9798C133.397 33.9798 133.928 33.8994 134.365 33.7354C134.803 33.5714 135.138 33.3334 135.368 33.0182C135.598 32.7031 135.716 32.3204 135.716 31.8669C135.716 31.4521 135.62 31.0823 135.426 30.7639C135.231 30.4423 134.863 30.1464 134.32 29.8763C133.778 29.6061 132.973 29.3392 131.912 29.0723C130.887 28.8086 130.073 28.5192 129.466 28.204C128.859 27.8888 128.421 27.5061 128.153 27.0527C127.885 26.5992 127.751 26.0397 127.751 25.3708C127.751 24.615 127.929 23.9525 128.284 23.3801C128.642 22.8077 129.15 22.3606 129.811 22.039C130.472 21.7175 131.261 21.5567 132.174 21.5567C133.148 21.5567 133.985 21.7432 134.688 22.113C135.387 22.4861 135.943 22.991 136.358 23.6342C136.773 24.2773 137.026 25.0074 137.128 25.8242L135.442 25.9368C135.368 25.3965 135.196 24.9141 134.927 24.4928C134.659 24.0715 134.292 23.7403 133.832 23.5023C133.369 23.2643 132.807 23.1421 132.145 23.1421C131.321 23.1421 130.663 23.3415 130.178 23.7371C129.689 24.1326 129.447 24.6536 129.447 25.2936C129.447 25.7084 129.542 26.0525 129.737 26.3227C129.932 26.5928 130.277 26.8308 130.778 27.0398C131.28 27.2489 131.998 27.4708 132.934 27.7087C134.046 27.9853 134.931 28.3165 135.588 28.6992C136.243 29.0819 136.713 29.5257 136.994 30.0306C137.275 30.5355 137.415 31.108 137.415 31.7479C137.415 32.5294 137.214 33.2048 136.815 33.7772C136.416 34.3496 135.863 34.7902 135.164 35.0989C134.464 35.4077 133.656 35.562 132.746 35.562L132.739 35.5653Z" fill="#151515"/>
<path d="M140.13 35.2662V21.8622H148.495V23.4476H141.743V27.7698H148.269V29.3167H141.743V33.6775H148.645V35.263H140.134L140.13 35.2662Z" fill="#151515"/>
</g>
<defs>
<clipPath id="clip0_1177_724">
<rect width="149" height="36.4622" fill="white"/>
</clipPath>
</defs>
</svg>
